<svg width="25" height="25" viewBox="0 0 25 25" fill="none" xmlns="http://www.w3.org/2000/svg">
<g opacity="0.996">
<path fill-rule="evenodd" clip-rule="evenodd" d="M11.1719 0.360535C11.5313 0.360535 11.8906 0.360535 12.25 0.360535C12.25 2.23553 12.25 4.11053 12.25 5.98553C9.87522 6.10193 8.04709 7.14878 6.76562 9.12616C5.42186 7.76678 4.07813 6.40741 2.73438 5.04803C4.8699 2.29223 7.68241 0.729724 11.1719 0.360535Z" fill="#EB4131"/>
<path fill-rule="evenodd" clip-rule="evenodd" d="M12.25 0.360535C12.6094 0.360535 12.9687 0.360535 13.3281 0.360535C16.4866 0.69752 19.1272 2.04127 21.25 4.39178C19.9375 5.73555 18.6094 7.06366 17.2656 8.37616C16.5864 7.6151 15.7895 7.01355 14.875 6.57147C14.0351 6.21133 13.1601 6.01605 12.25 5.98553C12.25 4.11053 12.25 2.23553 12.25 0.360535Z" fill="#CF2C47"/>
<path fill-rule="evenodd" clip-rule="evenodd" d="M2.73438 5.04803C4.07813 6.40741 5.42186 7.76678 6.76562 9.12616C5.86661 10.7447 5.67128 12.4479 6.17969 14.2355C6.35059 14.702 6.54588 15.1551 6.76562 15.5949C5.42186 16.9543 4.07813 18.3137 2.73438 19.673C1.63087 18.2937 0.888681 16.7312 0.507812 14.9855C0.410173 14.465 0.324235 13.9494 0.25 13.4387C0.25 12.7199 0.25 12.0011 0.25 11.2824C0.468895 8.95507 1.29702 6.87696 2.73438 5.04803Z" fill="#FABC00"/>
<path fill-rule="evenodd" clip-rule="evenodd" d="M24.25 11.2824C24.25 12.0011 24.25 12.7199 24.25 13.4387C23.8808 16.9282 22.3183 19.7407 19.5625 21.8762C18.2031 20.5324 16.8438 19.1887 15.4844 17.8449C16.5046 17.2152 17.3015 16.3715 17.875 15.3137C16.0003 15.2668 14.1253 15.2512 12.25 15.2668C12.25 13.3762 12.25 11.4855 12.25 9.59491C16.1564 9.5793 20.0626 9.59491 23.9688 9.64178C24.0806 10.1916 24.1743 10.7385 24.25 11.2824Z" fill="#3B79E5"/>
<path fill-rule="evenodd" clip-rule="evenodd" d="M6.76562 15.5949C8.04845 17.5728 9.87658 18.6197 12.25 18.7355C12.25 20.6105 12.25 22.4855 12.25 24.3605C11.8906 24.3605 11.5313 24.3605 11.1719 24.3605C7.68236 23.9913 4.86985 22.4288 2.73438 19.673C4.07813 18.3137 5.42186 16.9543 6.76562 15.5949Z" fill="#31AA51"/>
<path fill-rule="evenodd" clip-rule="evenodd" d="M15.4844 17.8449C16.8438 19.1887 18.2031 20.5324 19.5625 21.8762C18.1832 22.9796 16.6207 23.7219 14.875 24.1027C14.3558 24.2084 13.8402 24.2943 13.3281 24.3605C12.9687 24.3605 12.6094 24.3605 12.25 24.3605C12.25 22.4855 12.25 20.6105 12.25 18.7355C13.3997 18.6942 14.4778 18.3974 15.4844 17.8449Z" fill="#0F9D58"/>
</g>
</svg>
